# xmcd CD database file
#
# Track frame offsets:
#	150
#	18905
#	31810
#
# Disc length: 688 seconds
#
# Revision: 0
# Processed by: cddbd v1.5.1PL0 Copyright (c) Steve Scherf et al.
# Submitted via: CDex 1.50
#
DISCID=1502ae03
DTITLE=laica breeze - summer of love
DYEAR=2005
DGENRE=Rap
TTITLE0=summer of love
TTITLE1=few dayz
TTITLE2=C.C.A (carnival comes around) RYUKYUDISKO REMIX
EXTD=YEAR: 2005
EXTT0=
EXTT1=
EXTT2=
PLAYORDER=
